<svg height="3278" width="720" xmlns="http://www.w3.org/2000/svg">
<rect height="3278" fill="#555" width="720"></rect>
<text fill="#7f7" font-family="Courier New" font-size="12" xml:space="preserve">
<tspan x="10" y="26">15 megabytes installed</tspan>
<tspan x="10" y="42"></tspan>
<tspan x="10" y="58">node_modules</tspan>
<tspan x="10" y="74">└─┬ gulp-image-optimization@0.1.3 </tspan>
<tspan x="10" y="90">  ├── filesize@2.0.4 </tspan>
<tspan x="10" y="106">  ├── graceful-fs@2.0.3 </tspan>
<tspan x="10" y="122">  ├─┬ gulp-util@2.2.20 </tspan>
<tspan x="10" y="138">  │ ├─┬ chalk@0.5.1 </tspan>
<tspan x="10" y="154">  │ │ ├── ansi-styles@1.1.0 </tspan>
<tspan x="10" y="170">  │ │ ├── escape-string-regexp@1.0.5 </tspan>
<tspan x="10" y="186">  │ │ ├─┬ has-ansi@0.1.0 </tspan>
<tspan x="10" y="202">  │ │ │ └── ansi-regex@0.2.1 </tspan>
<tspan x="10" y="218">  │ │ ├── strip-ansi@0.3.0 </tspan>
<tspan x="10" y="234">  │ │ └── supports-color@0.2.0 </tspan>
<tspan x="10" y="250">  │ ├─┬ dateformat@1.0.12 </tspan>
<tspan x="10" y="266">  │ │ ├── get-stdin@4.0.1 </tspan>
<tspan x="10" y="282">  │ │ └─┬ meow@3.7.0 </tspan>
<tspan x="10" y="298">  │ │   ├─┬ camelcase-keys@2.1.0 </tspan>
<tspan x="10" y="314">  │ │   │ └── camelcase@2.1.1 </tspan>
<tspan x="10" y="330">  │ │   ├── decamelize@1.2.0 </tspan>
<tspan x="10" y="346">  │ │   ├─┬ loud-rejection@1.6.0 </tspan>
<tspan x="10" y="362">  │ │   │ ├─┬ currently-unhandled@0.4.1 </tspan>
<tspan x="10" y="378">  │ │   │ │ └── array-find-index@1.0.2 </tspan>
<tspan x="10" y="394">  │ │   │ └── signal-exit@3.0.2 </tspan>
<tspan x="10" y="410">  │ │   ├── map-obj@1.0.1 </tspan>
<tspan x="10" y="426">  │ │   ├── minimist@1.2.0 </tspan>
<tspan x="10" y="442">  │ │   ├─┬ normalize-package-data@2.3.8 </tspan>
<tspan x="10" y="458">  │ │   │ ├── hosted-git-info@2.4.2 </tspan>
<tspan x="10" y="474">  │ │   │ ├─┬ is-builtin-module@1.0.0 </tspan>
<tspan x="10" y="490">  │ │   │ │ └── builtin-modules@1.1.1 </tspan>
<tspan x="10" y="506">  │ │   │ ├── semver@5.3.0 </tspan>
<tspan x="10" y="522">  │ │   │ └─┬ validate-npm-package-license@3.0.1 </tspan>
<tspan x="10" y="538">  │ │   │   ├─┬ spdx-correct@1.0.2 </tspan>
<tspan x="10" y="554">  │ │   │   │ └── spdx-license-ids@1.2.2 </tspan>
<tspan x="10" y="570">  │ │   │   └── spdx-expression-parse@1.0.4 </tspan>
<tspan x="10" y="586">  │ │   ├── object-assign@4.1.1 </tspan>
<tspan x="10" y="602">  │ │   ├─┬ read-pkg-up@1.0.1 </tspan>
<tspan x="10" y="618">  │ │   │ ├─┬ find-up@1.1.2 </tspan>
<tspan x="10" y="634">  │ │   │ │ ├── path-exists@2.1.0 </tspan>
<tspan x="10" y="650">  │ │   │ │ └─┬ pinkie-promise@2.0.1 </tspan>
<tspan x="10" y="666">  │ │   │ │   └── pinkie@2.0.4 </tspan>
<tspan x="10" y="682">  │ │   │ └─┬ read-pkg@1.1.0 </tspan>
<tspan x="10" y="698">  │ │   │   ├─┬ load-json-file@1.1.0 </tspan>
<tspan x="10" y="714">  │ │   │   │ ├── graceful-fs@4.1.11 </tspan>
<tspan x="10" y="730">  │ │   │   │ ├─┬ parse-json@2.2.0 </tspan>
<tspan x="10" y="746">  │ │   │   │ │ └─┬ error-ex@1.3.1 </tspan>
<tspan x="10" y="762">  │ │   │   │ │   └── is-arrayish@0.2.1 </tspan>
<tspan x="10" y="778">  │ │   │   │ ├── pify@2.3.0 </tspan>
<tspan x="10" y="794">  │ │   │   │ └─┬ strip-bom@2.0.0 </tspan>
<tspan x="10" y="810">  │ │   │   │   └── is-utf8@0.2.1 </tspan>
<tspan x="10" y="826">  │ │   │   └─┬ path-type@1.1.0 </tspan>
<tspan x="10" y="842">  │ │   │     └── graceful-fs@4.1.11 </tspan>
<tspan x="10" y="858">  │ │   ├─┬ redent@1.0.0 </tspan>
<tspan x="10" y="874">  │ │   │ ├─┬ indent-string@2.1.0 </tspan>
<tspan x="10" y="890">  │ │   │ │ └─┬ repeating@2.0.1 </tspan>
<tspan x="10" y="906">  │ │   │ │   └─┬ is-finite@1.0.2 </tspan>
<tspan x="10" y="922">  │ │   │ │     └── number-is-nan@1.0.1 </tspan>
<tspan x="10" y="938">  │ │   │ └── strip-indent@1.0.1 </tspan>
<tspan x="10" y="954">  │ │   └── trim-newlines@1.0.0 </tspan>
<tspan x="10" y="970">  │ ├── lodash._reinterpolate@2.4.1 </tspan>
<tspan x="10" y="986">  │ ├─┬ lodash.template@2.4.1 </tspan>
<tspan x="10" y="1002">  │ │ ├── lodash._escapestringchar@2.4.1 </tspan>
<tspan x="10" y="1018">  │ │ ├─┬ lodash.defaults@2.4.1 </tspan>
<tspan x="10" y="1034">  │ │ │ └── lodash._objecttypes@2.4.1 </tspan>
<tspan x="10" y="1050">  │ │ ├─┬ lodash.escape@2.4.1 </tspan>
<tspan x="10" y="1066">  │ │ │ ├─┬ lodash._escapehtmlchar@2.4.1 </tspan>
<tspan x="10" y="1082">  │ │ │ │ └── lodash._htmlescapes@2.4.1 </tspan>
<tspan x="10" y="1098">  │ │ │ └── lodash._reunescapedhtml@2.4.1 </tspan>
<tspan x="10" y="1114">  │ │ ├─┬ lodash.keys@2.4.1 </tspan>
<tspan x="10" y="1130">  │ │ │ ├── lodash._isnative@2.4.1 </tspan>
<tspan x="10" y="1146">  │ │ │ ├── lodash._shimkeys@2.4.1 </tspan>
<tspan x="10" y="1162">  │ │ │ └── lodash.isobject@2.4.1 </tspan>
<tspan x="10" y="1178">  │ │ ├── lodash.templatesettings@2.4.1 </tspan>
<tspan x="10" y="1194">  │ │ └── lodash.values@2.4.1 </tspan>
<tspan x="10" y="1210">  │ ├── minimist@0.2.0 </tspan>
<tspan x="10" y="1226">  │ ├─┬ multipipe@0.1.2 </tspan>
<tspan x="10" y="1242">  │ │ └─┬ duplexer2@0.0.2 </tspan>
<tspan x="10" y="1258">  │ │   └── readable-stream@1.1.14 </tspan>
<tspan x="10" y="1274">  │ ├─┬ through2@0.5.1 </tspan>
<tspan x="10" y="1290">  │ │ ├─┬ readable-stream@1.0.34 </tspan>
<tspan x="10" y="1306">  │ │ │ ├── core-util-is@1.0.2 </tspan>
<tspan x="10" y="1322">  │ │ │ ├── inherits@2.0.3 </tspan>
<tspan x="10" y="1338">  │ │ │ ├── isarray@0.0.1 </tspan>
<tspan x="10" y="1354">  │ │ │ └── string_decoder@0.10.31 </tspan>
<tspan x="10" y="1370">  │ │ └── xtend@3.0.0 </tspan>
<tspan x="10" y="1386">  │ └─┬ vinyl@0.2.3 </tspan>
<tspan x="10" y="1402">  │   └── clone-stats@0.0.1 </tspan>
<tspan x="10" y="1418">  ├─┬ image-min@0.1.4 </tspan>
<tspan x="10" y="1434">  │ ├─┬ gifsicle@0.1.7 </tspan>
<tspan x="10" y="1450">  │ │ ├─┬ bin-build@0.1.1 </tspan>
<tspan x="10" y="1466">  │ │ │ ├─┬ download@0.1.19 </tspan>
<tspan x="10" y="1482">  │ │ │ │ ├─┬ decompress@0.2.5 </tspan>
<tspan x="10" y="1498">  │ │ │ │ │ ├── adm-zip@0.4.7 </tspan>
<tspan x="10" y="1514">  │ │ │ │ │ ├─┬ ext-name@1.0.1 </tspan>
<tspan x="10" y="1530">  │ │ │ │ │ │ ├─┬ ext-list@0.2.0 </tspan>
<tspan x="10" y="1546">  │ │ │ │ │ │ │ └─┬ got@0.2.0 </tspan>
<tspan x="10" y="1562">  │ │ │ │ │ │ │   └── object-assign@0.3.1 </tspan>
<tspan x="10" y="1578">  │ │ │ │ │ │ └── underscore.string@2.3.3 </tspan>
<tspan x="10" y="1594">  │ │ │ │ │ ├── get-stdin@0.1.0 </tspan>
<tspan x="10" y="1610">  │ │ │ │ │ ├─┬ stream-combiner@0.0.4 </tspan>
<tspan x="10" y="1626">  │ │ │ │ │ │ └── duplexer@0.1.1 </tspan>
<tspan x="10" y="1642">  │ │ │ │ │ └─┬ tar@0.1.20 </tspan>
<tspan x="10" y="1658">  │ │ │ │ │   ├── block-stream@0.0.9 </tspan>
<tspan x="10" y="1674">  │ │ │ │ │   └─┬ fstream@0.1.31 </tspan>
<tspan x="10" y="1690">  │ │ │ │ │     ├─┬ graceful-fs@3.0.11 </tspan>
<tspan x="10" y="1706">  │ │ │ │ │     │ └── natives@1.1.0 </tspan>
<tspan x="10" y="1722">  │ │ │ │ │     └─┬ mkdirp@0.5.1 </tspan>
<tspan x="10" y="1738">  │ │ │ │ │       └── minimist@0.0.8 </tspan>
<tspan x="10" y="1754">  │ │ │ │ ├── each-async@0.1.3 </tspan>
<tspan x="10" y="1770">  │ │ │ │ ├── get-stdin@0.1.0 </tspan>
<tspan x="10" y="1786">  │ │ │ │ ├── get-urls@0.1.2 </tspan>
<tspan x="10" y="1802">  │ │ │ │ ├─┬ nopt@2.2.1 </tspan>
<tspan x="10" y="1818">  │ │ │ │ │ └── abbrev@1.1.0 </tspan>
<tspan x="10" y="1834">  │ │ │ │ ├─┬ request@2.81.0 </tspan>
<tspan x="10" y="1850">  │ │ │ │ │ ├── aws-sign2@0.6.0 </tspan>
<tspan x="10" y="1866">  │ │ │ │ │ ├── aws4@1.6.0 </tspan>
<tspan x="10" y="1882">  │ │ │ │ │ ├── caseless@0.12.0 </tspan>
<tspan x="10" y="1898">  │ │ │ │ │ ├─┬ combined-stream@1.0.5 </tspan>
<tspan x="10" y="1914">  │ │ │ │ │ │ └── delayed-stream@1.0.0 </tspan>
<tspan x="10" y="1930">  │ │ │ │ │ ├── extend@3.0.0 </tspan>
<tspan x="10" y="1946">  │ │ │ │ │ ├── forever-agent@0.6.1 </tspan>
<tspan x="10" y="1962">  │ │ │ │ │ ├─┬ form-data@2.1.4 </tspan>
<tspan x="10" y="1978">  │ │ │ │ │ │ └── asynckit@0.4.0 </tspan>
<tspan x="10" y="1994">  │ │ │ │ │ ├─┬ har-validator@4.2.1 </tspan>
<tspan x="10" y="2010">  │ │ │ │ │ │ ├─┬ ajv@4.11.7 </tspan>
<tspan x="10" y="2026">  │ │ │ │ │ │ │ ├── co@4.6.0 </tspan>
<tspan x="10" y="2042">  │ │ │ │ │ │ │ └─┬ json-stable-stringify@1.0.1 </tspan>
<tspan x="10" y="2058">  │ │ │ │ │ │ │   └── jsonify@0.0.0 </tspan>
<tspan x="10" y="2074">  │ │ │ │ │ │ └── har-schema@1.0.5 </tspan>
<tspan x="10" y="2090">  │ │ │ │ │ ├─┬ hawk@3.1.3 </tspan>
<tspan x="10" y="2106">  │ │ │ │ │ │ ├── boom@2.10.1 </tspan>
<tspan x="10" y="2122">  │ │ │ │ │ │ ├── cryptiles@2.0.5 </tspan>
<tspan x="10" y="2138">  │ │ │ │ │ │ ├── hoek@2.16.3 </tspan>
<tspan x="10" y="2154">  │ │ │ │ │ │ └── sntp@1.0.9 </tspan>
<tspan x="10" y="2170">  │ │ │ │ │ ├─┬ http-signature@1.1.1 </tspan>
<tspan x="10" y="2186">  │ │ │ │ │ │ ├── assert-plus@0.2.0 </tspan>
<tspan x="10" y="2202">  │ │ │ │ │ │ ├─┬ jsprim@1.4.0 </tspan>
<tspan x="10" y="2218">  │ │ │ │ │ │ │ ├── assert-plus@1.0.0 </tspan>
<tspan x="10" y="2234">  │ │ │ │ │ │ │ ├── extsprintf@1.0.2 </tspan>
<tspan x="10" y="2250">  │ │ │ │ │ │ │ ├── json-schema@0.2.3 </tspan>
<tspan x="10" y="2266">  │ │ │ │ │ │ │ └── verror@1.3.6 </tspan>
<tspan x="10" y="2282">  │ │ │ │ │ │ └─┬ sshpk@1.13.0 </tspan>
<tspan x="10" y="2298">  │ │ │ │ │ │   ├── asn1@0.2.3 </tspan>
<tspan x="10" y="2314">  │ │ │ │ │ │   ├── assert-plus@1.0.0 </tspan>
<tspan x="10" y="2330">  │ │ │ │ │ │   ├── bcrypt-pbkdf@1.0.1 </tspan>
<tspan x="10" y="2346">  │ │ │ │ │ │   ├─┬ dashdash@1.14.1 </tspan>
<tspan x="10" y="2362">  │ │ │ │ │ │   │ └── assert-plus@1.0.0 </tspan>
<tspan x="10" y="2378">  │ │ │ │ │ │   ├── ecc-jsbn@0.1.1 </tspan>
<tspan x="10" y="2394">  │ │ │ │ │ │   ├─┬ getpass@0.1.6 </tspan>
<tspan x="10" y="2410">  │ │ │ │ │ │   │ └── assert-plus@1.0.0 </tspan>
<tspan x="10" y="2426">  │ │ │ │ │ │   ├── jodid25519@1.0.2 </tspan>
<tspan x="10" y="2442">  │ │ │ │ │ │   ├── jsbn@0.1.1 </tspan>
<tspan x="10" y="2458">  │ │ │ │ │ │   └── tweetnacl@0.14.5 </tspan>
<tspan x="10" y="2474">  │ │ │ │ │ ├── is-typedarray@1.0.0 </tspan>
<tspan x="10" y="2490">  │ │ │ │ │ ├── isstream@0.1.2 </tspan>
<tspan x="10" y="2506">  │ │ │ │ │ ├── json-stringify-safe@5.0.1 </tspan>
<tspan x="10" y="2522">  │ │ │ │ │ ├─┬ mime-types@2.1.15 </tspan>
<tspan x="10" y="2538">  │ │ │ │ │ │ └── mime-db@1.27.0 </tspan>
<tspan x="10" y="2554">  │ │ │ │ │ ├── oauth-sign@0.8.2 </tspan>
<tspan x="10" y="2570">  │ │ │ │ │ ├── performance-now@0.2.0 </tspan>
<tspan x="10" y="2586">  │ │ │ │ │ ├── qs@6.4.0 </tspan>
<tspan x="10" y="2602">  │ │ │ │ │ ├── safe-buffer@5.0.1 </tspan>
<tspan x="10" y="2618">  │ │ │ │ │ ├── stringstream@0.0.5 </tspan>
<tspan x="10" y="2634">  │ │ │ │ │ ├─┬ tough-cookie@2.3.2 </tspan>
<tspan x="10" y="2650">  │ │ │ │ │ │ └── punycode@1.4.1 </tspan>
<tspan x="10" y="2666">  │ │ │ │ │ ├── tunnel-agent@0.6.0 </tspan>
<tspan x="10" y="2682">  │ │ │ │ │ └── uuid@3.0.1 </tspan>
<tspan x="10" y="2698">  │ │ │ │ └─┬ through2@0.4.2 </tspan>
<tspan x="10" y="2714">  │ │ │ │   ├── readable-stream@1.0.34 </tspan>
<tspan x="10" y="2730">  │ │ │ │   └─┬ xtend@2.1.2 </tspan>
<tspan x="10" y="2746">  │ │ │ │     └── object-keys@0.4.0 </tspan>
<tspan x="10" y="2762">  │ │ │ └─┬ rimraf@2.6.1 </tspan>
<tspan x="10" y="2778">  │ │ │   └─┬ glob@7.1.1 </tspan>
<tspan x="10" y="2794">  │ │ │     ├── fs.realpath@1.0.0 </tspan>
<tspan x="10" y="2810">  │ │ │     ├─┬ inflight@1.0.6 </tspan>
<tspan x="10" y="2826">  │ │ │     │ └── wrappy@1.0.2 </tspan>
<tspan x="10" y="2842">  │ │ │     ├─┬ minimatch@3.0.3 </tspan>
<tspan x="10" y="2858">  │ │ │     │ └─┬ brace-expansion@1.1.7 </tspan>
<tspan x="10" y="2874">  │ │ │     │   ├── balanced-match@0.4.2 </tspan>
<tspan x="10" y="2890">  │ │ │     │   └── concat-map@0.0.1 </tspan>
<tspan x="10" y="2906">  │ │ │     ├── once@1.4.0 </tspan>
<tspan x="10" y="2922">  │ │ │     └── path-is-absolute@1.0.1 </tspan>
<tspan x="10" y="2938">  │ │ ├─┬ bin-wrapper@0.3.4 </tspan>
<tspan x="10" y="2954">  │ │ │ ├─┬ bin-check@0.1.5 </tspan>
<tspan x="10" y="2970">  │ │ │ │ └── executable@0.1.3 </tspan>
<tspan x="10" y="2986">  │ │ │ └── find-file@0.1.4 </tspan>
<tspan x="10" y="3002">  │ │ └─┬ log-symbols@1.0.2 </tspan>
<tspan x="10" y="3018">  │ │   └─┬ chalk@1.1.3 </tspan>
<tspan x="10" y="3034">  │ │     ├── ansi-styles@2.2.1 </tspan>
<tspan x="10" y="3050">  │ │     ├─┬ has-ansi@2.0.0 </tspan>
<tspan x="10" y="3066">  │ │     │ └── ansi-regex@2.1.1 </tspan>
<tspan x="10" y="3082">  │ │     ├── strip-ansi@3.0.1 </tspan>
<tspan x="10" y="3098">  │ │     └── supports-color@2.0.0 </tspan>
<tspan x="10" y="3114">  │ ├── jpegtran-bin@0.2.8 </tspan>
<tspan x="10" y="3130">  │ ├── mkdirp@0.3.5 </tspan>
<tspan x="10" y="3146">  │ ├── mout@0.7.1 </tspan>
<tspan x="10" y="3162">  │ └── optipng-bin@0.3.11 </tspan>
<tspan x="10" y="3178">  ├─┬ map-stream-limit@1.0.3 </tspan>
<tspan x="10" y="3194">  │ ├── map-stream@0.0.3 </tspan>
<tspan x="10" y="3210">  │ └── through@2.3.8 </tspan>
<tspan x="10" y="3226">  └─┬ temp-write@0.1.1 </tspan>
<tspan x="10" y="3242">    └─┬ tempfile@0.1.3 </tspan>
<tspan x="10" y="3258">      └── uuid@1.4.2</tspan>
</text>
</svg>
